<?xml version="1.0" encoding="UTF-8" standalone="no"?>
<!DOCTYPE svg PUBLIC "-//W3C//DTD SVG 1.1//EN"
 "http://www.w3.org/Graphics/SVG/1.1/DTD/svg11.dtd">
<!-- Generated by graphviz version 14.1.1 (20251213.1925)
 -->
<!-- Pages: 1 -->
<svg width="343pt" height="465pt"
 viewBox="0.00 0.00 343.00 465.00" xmlns="http://www.w3.org/2000/svg" xmlns:xlink="http://www.w3.org/1999/xlink">
<g id="graph0" class="graph" transform="scale(1 1) rotate(0) translate(4 460.6)">
<polygon fill="white" stroke="none" points="-4,4 -4,-460.6 339.25,-460.6 339.25,4 -4,4"/>
<!-- a -->
<g id="node1" class="node">
<title>a</title>
<ellipse fill="black" stroke="black" cx="202.75" cy="-454.8" rx="1.8" ry="1.8"/>
</g>
<!-- b -->
<g id="node2" class="node">
<title>b</title>
<ellipse fill="black" stroke="black" cx="160.75" cy="-349.5" rx="1.8" ry="1.8"/>
</g>
<!-- a&#45;&gt;b -->
<g id="edge1" class="edge">
<title>a&#45;&gt;b</title>
<path fill="none" stroke="black" d="M201.09,-453.65C194.62,-452.97 170.93,-449.52 161.5,-435 142.64,-405.96 157.92,-358.65 160.42,-351.43"/>
<text xml:space="preserve" text-anchor="middle" x="192.62" y="-421.7" font-family="Times New Roman,serif" font-size="14.00">K1:</text>
<text xml:space="preserve" text-anchor="middle" x="192.62" y="-405.2" font-family="Times New Roman,serif" font-size="14.00">Erster</text>
<text xml:space="preserve" text-anchor="middle" x="192.62" y="-388.7" font-family="Times New Roman,serif" font-size="14.00">Konkurrent</text>
</g>
<!-- c -->
<g id="node3" class="node">
<title>c</title>
<polygon fill="none" stroke="black" points="304,-367.5 187.5,-367.5 187.5,-331.5 304,-331.5 304,-367.5"/>
<text xml:space="preserve" text-anchor="middle" x="245.75" y="-344.45" font-family="Times New Roman,serif" font-size="14.00">u1=9, u2=0, u3=0</text>
</g>
<!-- a&#45;&gt;c -->
<g id="edge2" class="edge">
<title>a&#45;&gt;c</title>
<path fill="none" stroke="black" d="M204.13,-452.98C207.9,-450.67 218.45,-443.69 223.75,-435 236.54,-414.03 241.95,-385.76 244.2,-367.83"/>
<text xml:space="preserve" text-anchor="middle" x="274.52" y="-421.7" font-family="Times New Roman,serif" font-size="14.00">M1:</text>
<text xml:space="preserve" text-anchor="middle" x="274.52" y="-405.2" font-family="Times New Roman,serif" font-size="14.00">Tankstellen&#45;</text>
<text xml:space="preserve" text-anchor="middle" x="274.52" y="-388.7" font-family="Times New Roman,serif" font-size="14.00">Monopol</text>
</g>
<!-- d -->
<g id="node4" class="node">
<title>d</title>
<polygon fill="none" stroke="black" points="184.25,-262.5 63.25,-262.5 63.25,-226.5 184.25,-226.5 184.25,-262.5"/>
<text xml:space="preserve" text-anchor="middle" x="123.75" y="-239.45" font-family="Times New Roman,serif" font-size="14.00">u1=0, u2=&#45;5, u3=0</text>
</g>
<!-- b&#45;&gt;d -->
<g id="edge3" class="edge">
<title>b&#45;&gt;d</title>
<path fill="none" stroke="black" d="M159.68,-347.8C154.87,-344.59 135.16,-330.68 127.75,-313.5 120.77,-297.32 120.56,-276.94 121.6,-262.73"/>
<text xml:space="preserve" text-anchor="middle" x="153.25" y="-300.2" font-family="Times New Roman,serif" font-size="14.00">A2 (p):</text>
<text xml:space="preserve" text-anchor="middle" x="153.25" y="-283.7" font-family="Times New Roman,serif" font-size="14.00">aggressiv</text>
</g>
<!-- e -->
<g id="node5" class="node">
<title>e</title>
<ellipse fill="black" stroke="black" cx="203.75" cy="-244.5" rx="1.8" ry="1.8"/>
</g>
<!-- b&#45;&gt;e -->
<g id="edge4" class="edge">
<title>b&#45;&gt;e</title>
<path fill="none" stroke="black" d="M161.36,-347.43C163.76,-343.22 172.71,-327.26 178.75,-313.5 190.48,-286.78 201.48,-252.64 203.44,-246.48"/>
<text xml:space="preserve" text-anchor="middle" x="215.58" y="-300.2" font-family="Times New Roman,serif" font-size="14.00">F2 (1&#45;p):</text>
<text xml:space="preserve" text-anchor="middle" x="215.58" y="-283.7" font-family="Times New Roman,serif" font-size="14.00">friedlich</text>
</g>
<!-- f -->
<g id="node6" class="node">
<title>f</title>
<ellipse fill="black" stroke="black" cx="146.75" cy="-123" rx="1.8" ry="1.8"/>
</g>
<!-- e&#45;&gt;f -->
<g id="edge5" class="edge">
<title>e&#45;&gt;f</title>
<path fill="none" stroke="black" d="M203.38,-242.44C202.32,-239.52 199.01,-231.3 193.75,-226.5 179.87,-213.84 166.37,-223.82 155.5,-208.5 135.36,-180.11 144.92,-132.25 146.53,-124.95"/>
<text xml:space="preserve" text-anchor="middle" x="186.62" y="-195.2" font-family="Times New Roman,serif" font-size="14.00">K3:</text>
<text xml:space="preserve" text-anchor="middle" x="186.62" y="-178.7" font-family="Times New Roman,serif" font-size="14.00">Zweiter</text>
<text xml:space="preserve" text-anchor="middle" x="186.62" y="-162.2" font-family="Times New Roman,serif" font-size="14.00">Konkurrent</text>
</g>
<!-- g -->
<g id="node7" class="node">
<title>g</title>
<polygon fill="none" stroke="black" points="335.25,-141 166.25,-141 166.25,-105 335.25,-105 335.25,-141"/>
<text xml:space="preserve" text-anchor="middle" x="250.75" y="-117.95" font-family="Times New Roman,serif" font-size="14.00">u1=4.625, u2=&#45;0.375, u3=0</text>
</g>
<!-- e&#45;&gt;g -->
<g id="edge6" class="edge">
<title>e&#45;&gt;g</title>
<path fill="none" stroke="black" d="M204.37,-242.44C206.8,-238.24 215.86,-222.33 221.75,-208.5 231.42,-185.81 240.26,-158.71 245.58,-141.43"/>
<text xml:space="preserve" text-anchor="middle" x="270.52" y="-195.2" font-family="Times New Roman,serif" font-size="14.00">M3:</text>
<text xml:space="preserve" text-anchor="middle" x="270.52" y="-178.7" font-family="Times New Roman,serif" font-size="14.00">Zwei</text>
<text xml:space="preserve" text-anchor="middle" x="270.52" y="-162.2" font-family="Times New Roman,serif" font-size="14.00">Tankstellen</text>
</g>
<!-- h -->
<g id="node8" class="node">
<title>h</title>
<polygon fill="none" stroke="black" points="125.5,-36 0,-36 0,0 125.5,0 125.5,-36"/>
<text xml:space="preserve" text-anchor="middle" x="62.75" y="-12.95" font-family="Times New Roman,serif" font-size="14.00">u1=0, u2=&#45;5, u3=&#45;5</text>
</g>
<!-- f&#45;&gt;h -->
<g id="edge7" class="edge">
<title>f&#45;&gt;h</title>
<path fill="none" stroke="black" d="M146.21,-121.34C141.02,-114.97 99.31,-63.83 76.89,-36.34"/>
<text xml:space="preserve" text-anchor="middle" x="142.68" y="-73.7" font-family="Times New Roman,serif" font-size="14.00">A4 (p):</text>
<text xml:space="preserve" text-anchor="middle" x="142.68" y="-57.2" font-family="Times New Roman,serif" font-size="14.00">aggressiv</text>
</g>
<!-- i -->
<g id="node9" class="node">
<title>i</title>
<polygon fill="none" stroke="black" points="320.38,-36 143.12,-36 143.12,0 320.38,0 320.38,-36"/>
<text xml:space="preserve" text-anchor="middle" x="231.75" y="-12.95" font-family="Times New Roman,serif" font-size="14.00">u1=2.75, u2=&#45;2.25, u3=&#45;2.25</text>
</g>
<!-- f&#45;&gt;i -->
<g id="edge8" class="edge">
<title>f&#45;&gt;i</title>
<path fill="none" stroke="black" d="M147.23,-121.04C148.59,-118.39 152.59,-110.78 156.75,-105 161.88,-97.89 195.77,-59.5 216.2,-36.48"/>
<text xml:space="preserve" text-anchor="middle" x="223.54" y="-73.7" font-family="Times New Roman,serif" font-size="14.00">F4 (1&#45;p):</text>
<text xml:space="preserve" text-anchor="middle" x="223.54" y="-57.2" font-family="Times New Roman,serif" font-size="14.00">friedlich</text>
</g>
</g>
</svg>
